<svg width="24" height="24" viewBox="0 0 24 24" fill="none" xmlns="http://www.w3.org/2000/svg">
<path d="M10.5845 10.5869C10.2092 10.9619 9.99823 11.4707 9.99805 12.0012C9.99786 12.5317 10.2084 13.0406 10.5835 13.4159C10.9585 13.7912 11.4672 14.0021 11.9977 14.0023C12.5283 14.0025 13.0372 13.7919 13.4125 13.4169" stroke="#B8BABF" stroke-width="1.5" stroke-linecap="round" stroke-linejoin="round"/>
<path d="M14.636 5.365C13.7921 5.12166 12.9134 5 12 5C11.1082 4.99684 10.2204 5.11972 9.363 5.365C8.34947 5.6663 7.76059 5.91473 6.632 6.659C4.913 7.825 3.369 9.605 2 12C4.667 16.667 8 19 12 19C13.942 19 15.726 18.449 17.357 17.349C18.2757 16.6377 18.7318 16.2279 19.497 15.488C20.388 14.524 21.222 13.361 22 12C20.6314 9.6051 19.0875 7.82481 17.368 6.659M14.636 5.365C15.5912 5.64044 16.5019 6.07176 17.368 6.659M14.636 5.365C15.8889 5.78394 16.4553 6.08201 17.368 6.659" stroke="#B8BABF" stroke-width="1.5" stroke-linecap="round" stroke-linejoin="round"/>
</svg>
